<svg width="114" height="38" viewBox="0 0 114 38" fill="none" xmlns="http://www.w3.org/2000/svg">
<g clip-path="url(#clip0_195_16487)">
<path d="M0 6.90908C0 3.09331 3.09331 0 6.90909 0H107.091C110.907 0 114 3.09331 114 6.90909V31.0909C114 34.9067 110.907 38 107.091 38H6.90909C3.09331 38 0 34.9067 0 31.0909V6.90908Z" fill="white"/>
<path d="M26.116 25.305C26.6035 25.305 26.9746 25.1056 27.2294 24.7067C27.4953 24.2968 27.6283 23.7374 27.6283 23.0283V17.7769C27.6283 15.6164 27.1186 14.5363 26.0994 14.5363C25.623 14.5363 25.2519 14.7302 24.986 15.118C24.7201 15.5057 24.5871 16.0541 24.5871 16.7632V22.1642C24.5871 24.2581 25.0967 25.305 26.116 25.305ZM25.983 27.2992C23.446 27.2992 21.5902 26.7231 20.4159 25.5709C19.2415 24.4187 18.6543 22.5796 18.6543 20.0536C18.6543 17.5498 19.247 15.6664 20.4325 14.4034C21.618 13.1293 23.5457 12.4922 26.2156 12.4922C28.8192 12.4922 30.6972 13.1016 31.8493 14.3202C33.0127 15.5278 33.5943 17.3614 33.5943 19.821C33.5943 22.369 32.9793 24.2525 31.7496 25.4711C30.5309 26.6899 28.6088 27.2992 25.983 27.2992Z" fill="#FF0000"/>
<path d="M43.4982 26.9537L40.9224 20.1568L43.6478 12.8281H49.8797L45.5257 19.3591L49.9794 26.9537H43.4982ZM35.1724 26.9537V8.15828L34.1753 7.56002V6.01451L39.5098 5.18359H40.59V26.9537H35.1724Z" fill="#FF0000"/>
<path d="M56.9927 32.8202C56.1285 32.8202 55.1536 32.6208 54.0678 32.2219C52.982 31.8342 52.2786 31.463 51.9573 31.1085L53.0043 28.8317C53.2812 29.0423 53.7299 29.2362 54.3504 29.4135C54.9707 29.5907 55.5025 29.6794 55.9457 29.6794C56.3889 29.6794 56.7711 29.6183 57.0923 29.4965C57.4248 29.3857 57.6796 29.2417 57.8568 29.0644C58.0341 28.8983 58.178 28.6878 58.2889 28.433C58.3996 28.1892 58.4662 27.9676 58.4883 27.7682C58.5216 27.5687 58.5437 27.3472 58.5548 27.1035V25.6909C57.613 26.6658 56.4664 27.1533 55.1148 27.1533C53.2868 27.1533 51.9461 26.5273 51.0931 25.2755C50.2401 24.0235 49.8135 22.2841 49.8135 20.0573C49.8135 19.0159 49.9299 18.0575 50.1625 17.1822C50.3951 16.296 50.7331 15.5204 51.1763 14.8558C51.6304 14.1799 52.2177 13.6537 52.9377 13.2769C53.6579 12.8892 54.4722 12.6953 55.3807 12.6953C56.7544 12.6953 57.9455 13 58.9536 13.6094L59.2362 12.8283H61.7787L64.9029 12.9778V14.5399L63.9059 15.2379V26.339C63.9059 30.6598 61.6015 32.8202 56.9927 32.8202ZM57.5244 24.1287C57.8568 24.1287 58.2003 24.0346 58.5548 23.8462V15.0883C58.2889 15.033 58.0451 15.0053 57.8236 15.0053C56.35 15.0164 55.6078 16.152 55.5968 18.412V20.9879C55.5968 21.697 55.6909 22.3063 55.8793 22.8159C56.2116 23.6912 56.76 24.1287 57.5244 24.1287Z" fill="#FF0000"/>
<path d="M74.3494 24.7435C74.2828 24.8986 74.1444 25.1035 73.9339 25.3584C73.7344 25.6132 73.4685 25.8957 73.1362 26.2059C72.8039 26.505 72.3939 26.7598 71.9064 26.9703C71.4189 27.1919 70.9259 27.3026 70.4274 27.3026C68.8652 27.3026 67.7463 26.8374 67.0704 25.9067C66.4058 24.9762 66.0734 23.4251 66.0734 21.2536V15.3374L65.4917 14.7392V12.8281H71.5243V22.3005C71.5132 22.7991 71.5962 23.1703 71.7735 23.4139C71.9507 23.6466 72.2721 23.763 72.7373 23.763C72.8039 23.763 72.8648 23.763 72.9202 23.763C72.9755 23.7519 73.0309 23.7409 73.0864 23.7298C73.1417 23.7076 73.186 23.691 73.2193 23.6799C73.2636 23.6688 73.3135 23.6522 73.3689 23.63C73.4243 23.5968 73.4685 23.5691 73.5018 23.5469C73.535 23.5248 73.5794 23.4971 73.6348 23.4639C73.6901 23.4196 73.7289 23.3863 73.7511 23.3641C73.7843 23.342 73.8287 23.3087 73.8841 23.2644C73.9505 23.2091 74.0003 23.1703 74.0336 23.1481V15.3374L73.1362 14.7392V12.8281H79.4678V26.9537H74.8646L74.3494 24.7435Z" fill="#FF0000"/>
<path d="M87.1227 26.9502H81.7549V16.1982L80.7578 15.5832V13.805L84.3308 12.8246H87.1559V14.9684L87.3554 14.7191C87.4883 14.5418 87.6822 14.3314 87.937 14.0876C88.2029 13.8439 88.4965 13.6057 88.8178 13.373C89.1391 13.1293 89.5213 12.9243 89.9645 12.7581C90.4187 12.5809 90.8618 12.4922 91.2939 12.4922C92.8117 12.4922 93.8808 12.9077 94.5012 13.7386C95.1328 14.5695 95.4485 15.96 95.4485 17.9098C95.4485 17.9763 95.4485 18.076 95.4485 18.2089C95.4374 18.3419 95.4319 18.4471 95.4319 18.5247V26.9502H89.9478V18.0428C89.9811 17.0014 89.5379 16.4807 88.6184 16.4807C88.5518 16.4807 88.4854 16.4862 88.4189 16.4973C88.3636 16.5084 88.3082 16.5194 88.2527 16.5305C88.2084 16.5416 88.153 16.5637 88.0866 16.5969C88.0312 16.6191 87.9813 16.6412 87.937 16.6635C87.8927 16.6746 87.8429 16.7023 87.7875 16.7466C87.732 16.7798 87.6877 16.8075 87.6545 16.8296C87.6213 16.8518 87.5714 16.8905 87.505 16.946C87.4495 16.9903 87.4052 17.0235 87.372 17.0457C87.3498 17.0678 87.3055 17.1066 87.239 17.162C87.1836 17.2064 87.1449 17.2396 87.1227 17.2617V26.9502Z" fill="#FF0000"/>
</g>
<defs>
<clipPath id="clip0_195_16487">
<rect width="114" height="38" fill="white"/>
</clipPath>
</defs>
</svg>
