<svg width="150" height="50" viewBox="0 0 150 50" fill="none" xmlns="http://www.w3.org/2000/svg">
<g clip-path="url(#clip0_81_99)">
<path d="M0 9.0909C0 4.07014 4.07014 0 9.09091 0H140.909C145.93 0 150 4.07014 150 9.09091V40.9091C150 45.9299 145.93 50 140.909 50H9.09091C4.07014 50 0 45.9299 0 40.9091V9.0909Z" fill="#FF0000"/>
<path d="M34.3629 33.2965C35.0044 33.2965 35.4926 33.0341 35.8279 32.5092C36.1778 31.9699 36.3528 31.2338 36.3528 30.3008V23.3911C36.3528 20.5484 35.6822 19.1271 34.3411 19.1271C33.7142 19.1271 33.2259 19.3822 32.8761 19.8925C32.5262 20.4026 32.3512 21.1242 32.3512 22.0572V29.1638C32.3512 31.9189 33.0218 33.2965 34.3629 33.2965ZM34.1879 35.9204C30.8498 35.9204 28.4079 35.1624 26.8628 33.6464C25.3175 32.1302 24.5449 29.7104 24.5449 26.3868C24.5449 23.0922 25.3248 20.6141 26.8846 18.9522C28.4445 17.2758 30.9809 16.4375 34.4941 16.4375C37.9198 16.4375 40.3908 17.2394 41.9068 18.8428C43.4375 20.4318 44.2028 22.8444 44.2028 26.0806C44.2028 29.4334 43.3936 31.9116 41.7756 33.5151C40.1721 35.1186 37.6429 35.9204 34.1879 35.9204Z" fill="white"/>
<path d="M57.2338 35.4651L53.8445 26.5218L57.4307 16.8788H65.6305L59.9015 25.4723L65.7617 35.4651H57.2338ZM46.2788 35.4651V10.7344L44.9668 9.94718V7.91363L51.9859 6.82031H53.4072V35.4651H46.2788Z" fill="white"/>
<path d="M74.9912 43.1813C73.8542 43.1813 72.5713 42.9189 71.1428 42.394C69.7141 41.8839 68.7885 41.3955 68.3658 40.929L69.7434 37.9333C70.1078 38.2103 70.6981 38.4655 71.5145 38.6987C72.3308 38.9319 73.0305 39.0486 73.6136 39.0486C74.1968 39.0486 74.6996 38.9683 75.1223 38.808C75.5598 38.6622 75.8951 38.4727 76.1282 38.2395C76.3615 38.0209 76.5509 37.7439 76.6968 37.4086C76.8425 37.0879 76.9301 36.7963 76.9592 36.5339C77.0029 36.2715 77.0321 35.98 77.0466 35.6593V33.8006C75.8075 35.0835 74.2988 35.7249 72.5204 35.7249C70.1151 35.7249 68.3511 34.9012 67.2286 33.254C66.1062 31.6067 65.5449 29.318 65.5449 26.388C65.5449 25.0177 65.6981 23.7567 66.0042 22.605C66.3102 21.4389 66.7549 20.4185 67.3381 19.5439C67.9356 18.6546 68.7084 17.9622 69.6558 17.4665C70.6034 16.9563 71.6748 16.7012 72.8702 16.7012C74.6778 16.7012 76.2449 17.102 77.5713 17.9039L77.9432 16.8762H81.2886L85.3995 17.0729V19.1283L84.0876 20.0467V34.6535C84.0876 40.3386 81.0555 43.1813 74.9912 43.1813ZM75.6909 31.7452C76.1282 31.7452 76.5802 31.6213 77.0466 31.3735V19.8499C76.6968 19.777 76.3761 19.7406 76.0845 19.7406C74.1456 19.7552 73.1691 21.2495 73.1545 24.2232V27.6125C73.1545 28.5455 73.2784 29.3472 73.5262 30.0177C73.9635 31.1695 74.6851 31.7452 75.6909 31.7452Z" fill="white"/>
<path d="M97.8287 32.557C97.7411 32.761 97.559 33.0308 97.282 33.366C97.0195 33.7013 96.6697 34.073 96.2324 34.4812C95.7951 34.8748 95.2557 35.21 94.6143 35.487C93.9728 35.7786 93.3241 35.9243 92.6681 35.9243C90.6127 35.9243 89.1404 35.3122 88.2511 34.0876C87.3765 32.8632 86.9393 30.8223 86.9393 27.965V20.1806L86.1738 19.3935V16.8789H94.1114V29.3426C94.0968 29.9986 94.2061 30.487 94.4394 30.8076C94.6725 31.1138 95.0954 31.2669 95.7075 31.2669C95.7951 31.2669 95.8753 31.2669 95.9481 31.2669C96.021 31.2523 96.0938 31.2378 96.1668 31.2232C96.2397 31.194 96.298 31.1722 96.3417 31.1576C96.4 31.1429 96.4657 31.121 96.5385 31.0919C96.6114 31.0482 96.6697 31.0118 96.7134 30.9826C96.7571 30.9535 96.8155 30.917 96.8884 30.8733C96.9613 30.815 97.0123 30.7712 97.0414 30.742C97.0851 30.7129 97.1435 30.6692 97.2164 30.6109C97.3038 30.538 97.3694 30.487 97.4131 30.4578V20.1806L96.2324 19.3935V16.8789H104.563V35.4652H98.5065L97.8287 32.557Z" fill="white"/>
<path d="M114.635 35.4612H107.572V21.3138L106.26 20.5046V18.1649L110.961 16.8749H114.678V19.6956L114.941 19.3676C115.116 19.1344 115.371 18.8575 115.706 18.5368C116.056 18.2161 116.442 17.9026 116.865 17.5965C117.288 17.2758 117.791 17.0061 118.374 16.7874C118.971 16.5542 119.554 16.4375 120.123 16.4375C122.12 16.4375 123.527 16.9842 124.343 18.0775C125.174 19.1708 125.59 21.0004 125.59 23.5659C125.59 23.6535 125.59 23.7846 125.59 23.9595C125.575 24.1345 125.568 24.2729 125.568 24.3751V35.4612H118.352V23.7409C118.396 22.3706 117.812 21.6855 116.603 21.6855C116.515 21.6855 116.428 21.6928 116.34 21.7074C116.267 21.7219 116.194 21.7365 116.121 21.7511C116.063 21.7656 115.99 21.7948 115.903 21.8385C115.83 21.8676 115.764 21.8968 115.706 21.9261C115.648 21.9406 115.582 21.9771 115.509 22.0354C115.436 22.0791 115.378 22.1155 115.334 22.1446C115.291 22.1738 115.225 22.2248 115.138 22.2978C115.065 22.3561 115.006 22.3998 114.963 22.4289C114.933 22.4581 114.875 22.5091 114.788 22.5819C114.715 22.6404 114.664 22.6841 114.635 22.7132V35.4612Z" fill="white"/>
</g>
<defs>
<clipPath id="clip0_81_99">
<rect width="150" height="50" fill="white"/>
</clipPath>
</defs>
</svg>
